<?xml version="1.0" encoding="iso-8859-1"?>
<!-- Generator: Adobe Illustrator 19.0.0, SVG Export Plug-In . SVG Version: 6.00 Build 0)  -->
<svg version="1.1" id="Capa_1" xmlns="http://www.w3.org/2000/svg" xmlns:xlink="http://www.w3.org/1999/xlink" x="0px" y="0px"
	 viewBox="0 0 512 512" style="enable-background:new 0 0 512 512;" xml:space="preserve">
<g>
	<g>
		<path d="M276,392c-5.52,0-10,4.48-10,10c0,5.52,4.48,10,10,10c5.52,0,10-4.48,10-10C286,396.48,281.52,392,276,392z"/>
	</g>
</g>
<g>
	<g>
		<path d="M482,452h-0.448C499.962,437.082,512,415.325,512,392c0-33.782-21.379-64.084-53.198-75.402
			c-0.043-0.015-0.086-0.03-0.129-0.045l-85.479-29.103L404.63,126H416c27.57,0,50-22.43,50-50V30c0-16.542-13.458-30-30-30
			c-16.575,0-30,13.425-30,30v36h-50c-16.542,0-30,13.458-30,30c0,12.174,7.421,22.78,17.974,27.453l-28.077,144.489l-142.41-48.486
			c-8.368-2.974-17.044-5.06-25.863-6.253L130.127,146h32.803c9.899,0,19.208-3.856,26.211-10.858
			C196.144,128.139,200,118.83,200,108.93c0-18.188-13.026-33.565-30.976-36.563C47.12,52.274,53.514,52.61,46.61,52.61
			C20.909,52.61,0,73.56,0,99.31C0,125.055,20.945,146,46.69,146h21.246l19.132,73.271C35.336,237.321,0,286.436,0,342
			c0,45.87,24.008,86.812,60.69,110H30c-16.574,0-30,13.424-30,30c0,16.542,13.458,30,30,30h452c16.575,0,30-13.425,30-30
			C512,465.458,498.542,452,482,452z M356,86h60c5.522,0,10-4.478,10-10V30c0-5.519,4.479-10,10-10c5.514,0,10,4.486,10,10v46
			c0,16.542-13.458,30-30,30c-11.81,0-47.195,0-59.585,0c-0.32-0.026-0.637-0.036-0.953-0.031C350.215,105.694,346,101.297,346,96
			C346,90.486,350.486,86,356,86z M363.852,126h20.403l-30.169,154.944l-19.079-6.496L363.852,126z M46.69,126
			C31.973,126,20,114.026,20,99.31c0-14.722,11.937-26.7,26.61-26.7c4.09,0-0.908-0.392,119.123,19.483
			C174,93.475,180,100.555,180,108.93c0,4.558-1.776,8.845-5.001,12.069c-3.225,3.225-7.511,5.001-12.069,5.001H46.69z
			 M126.658,212.054c-6.823,0.173-13.597,0.881-20.255,2.104L88.607,146h20.853L126.658,212.054z M20,342
			c0-49.853,33.605-93.575,81.733-106.327c20.642-5.497,43.667-4.99,65.112,2.648c0.044,0.016,0.088,0.03,0.132,0.046
			l285.186,97.097C475.993,343.972,492,366.684,492,392c0,31.395-31.442,58.986-65.971,59l-310.275,0.092
			C61.122,444.029,20,397.234,20,342z M482,492H30c-5.514,0-10-4.486-10-10c0-5.521,4.479-10,10-10c8.364,0,362.062,0,452,0
			c5.514,0,10,4.486,10,10C492,487.519,487.521,492,482,492z"/>
	</g>
</g>
<g>
	<g>
		<path d="M376,332c-27.57,0-50,22.43-50,50s22.43,50,50,50s50-22.43,50-50S403.57,332,376,332z M376,412c-16.542,0-30-13.458-30-30
			s13.458-30,30-30s30,13.458,30,30S392.542,412,376,412z"/>
	</g>
</g>
<g>
	<g>
		<path d="M236,392h-41.858l-8.076-8.076C195.104,371.882,200,357.317,200,342c0-38.598-31.402-70-70-70c-38.598,0-70,31.402-70,70
			c0,38.598,31.402,70,70,70c15.315,0,29.879-4.894,41.923-13.934l11.006,11.006c1.875,1.875,4.419,2.929,7.071,2.929h46
			c5.522,0,10-4.478,10-10C246,396.479,241.522,392,236,392z M171.722,369.58l-34.651-34.651c-3.905-3.904-10.237-3.904-14.142,0
			c-3.905,3.905-3.905,10.237,0,14.143l34.65,34.65C149.465,389.106,139.954,392,130,392c-27.57,0-50-22.43-50-50s22.43-50,50-50
			s50,22.43,50,50C180,351.955,177.105,361.468,171.722,369.58z"/>
	</g>
</g>
<g>
</g>
<g>
</g>
<g>
</g>
<g>
</g>
<g>
</g>
<g>
</g>
<g>
</g>
<g>
</g>
<g>
</g>
<g>
</g>
<g>
</g>
<g>
</g>
<g>
</g>
<g>
</g>
<g>
</g>
</svg>
