<?xml version="1.0" encoding="iso-8859-1"?>
<!-- Generator: Adobe Illustrator 19.0.0, SVG Export Plug-In . SVG Version: 6.00 Build 0)  -->
<svg version="1.1" id="Capa_1" xmlns="http://www.w3.org/2000/svg" xmlns:xlink="http://www.w3.org/1999/xlink" x="0px" y="0px"
	 viewBox="0 0 496 496" style="enable-background:new 0 0 496 496;" xml:space="preserve">
<g>
	<g>
		<g>
			<path d="M17.816,168.16l1.68,1.12c3.477,2.304,7.294,4.048,11.312,5.168c-4.351,5.57-6.744,12.42-6.808,19.488V200
				c0,17.673,14.327,32,32,32h6.056c7.076-0.023,13.941-2.417,19.496-6.8c1.122,4.015,2.866,7.829,5.168,11.304l1.12,1.68
				c7.406,11.146,19.906,17.836,33.288,17.816h13.744c13.382,0.02,25.882-6.671,33.288-17.816l1.12-1.68
				c2.302-3.475,4.046-7.289,5.168-11.304c5.555,4.383,12.42,6.777,19.496,6.8H200c17.673,0,32-14.327,32-32v-6.064
				c-0.064-7.068-2.457-13.918-6.808-19.488c4.018-1.12,7.835-2.864,11.312-5.168l1.68-1.12
				c11.138-7.413,17.826-19.909,17.816-33.288v-13.744c0.01-13.379-6.678-25.875-17.816-33.288l-1.68-1.12
				c-3.477-2.304-7.294-4.048-11.312-5.168c4.351-5.57,6.744-12.42,6.808-19.488V56c0-17.673-14.327-32-32-32h-6.056
				c-7.076,0.023-13.941,2.417-19.496,6.8c-1.12-4.013-2.864-7.825-5.168-11.296l-1.12-1.688C160.754,6.671,148.254-0.02,134.872,0
				h-13.744C107.746-0.02,95.246,6.671,87.84,17.816l-1.12,1.688c-2.304,3.471-4.048,7.283-5.168,11.296
				c-5.555-4.383-12.42-6.777-19.496-6.8H56c-17.673,0-32,14.327-32,32v6.064c0.064,7.068,2.457,13.918,6.808,19.488
				c-4.016,1.119-7.831,2.863-11.304,5.168l-1.688,1.12C6.678,95.253-0.01,107.749,0,121.128v13.744
				C-0.01,148.251,6.678,160.747,17.816,168.16z M85.696,180.288c-3.728,6.216-5.697,13.328-5.696,20.576v3.824l-6.624,6.624
				c-2.997,3.01-7.072,4.698-11.32,4.688H56c-8.837,0-16-7.163-16-16v-6.064c0.01-4.241,1.695-8.307,4.688-11.312L51.312,176h3.824
				c7.252,0,14.367-1.972,20.584-5.704l24.952-14.968L85.696,180.288z M160,214.312c0.014,4.735-1.378,9.369-4,13.312l-1.128,1.688
				c-4.448,6.696-11.961,10.711-20,10.688h-13.744c-8.039,0.023-15.552-3.992-20-10.688L100,227.624
				c-2.622-3.943-4.014-8.576-4-13.312v-13.448c0.003-4.35,1.183-8.619,3.416-12.352l18.232-30.4c0.8,0.264,1.552,0.52,2.352,0.728
				V176h16v-17.136c0.8-0.208,1.6-0.464,2.352-0.728l18.224,30.4c2.232,3.725,3.415,7.985,3.424,12.328V214.312z M112,128
				c0-8.837,7.163-16,16-16s16,7.163,16,16s-7.163,16-16,16S112,136.837,112,128z M216,200c0,8.837-7.163,16-16,16h-6.056
				c-4.248,0.01-8.323-1.678-11.32-4.688L176,204.688v-3.824c-0.002-7.25-1.97-14.364-5.696-20.584l-14.976-24.952l24.952,14.968
				c6.217,3.732,13.332,5.704,20.584,5.704h3.824l6.624,6.624c2.993,3.005,4.677,7.071,4.688,11.312V200z M227.624,100l1.688,1.16
				c6.677,4.451,10.687,11.944,10.688,19.968v13.744c0.01,8.036-4.002,15.543-10.688,20L227.624,156
				c-3.942,2.624-8.576,4.017-13.312,4h-13.448c-4.352,0.003-8.622-1.181-12.352-3.424l-30.4-18.224
				c0.264-0.8,0.52-1.552,0.728-2.352H176v-16h-17.136c-0.208-0.8-0.464-1.6-0.728-2.352l30.4-18.224
				c3.723-2.239,7.984-3.422,12.328-3.424h13.448C219.048,95.983,223.682,97.376,227.624,100z M170.304,75.712
				c3.728-6.216,5.697-13.328,5.696-20.576v-3.824l6.624-6.624c2.997-3.01,7.072-4.698,11.32-4.688H200c8.837,0,16,7.163,16,16
				v6.064c-0.01,4.241-1.695,8.307-4.688,11.312L204.688,80h-3.824c-7.252,0-14.367,1.972-20.584,5.704l-24.952,14.968
				L170.304,75.712z M96,41.688c-0.014-4.736,1.378-9.369,4-13.312l1.128-1.688c4.448-6.696,11.961-10.711,20-10.688h13.744
				c8.039-0.023,15.552,3.992,20,10.688L156,28.376c2.622,3.943,4.014,8.576,4,13.312v13.448c-0.003,4.35-1.183,8.619-3.416,12.352
				l-18.232,30.4c-0.8-0.264-1.552-0.52-2.352-0.728V80h-16v17.136c-0.8,0.208-1.6,0.464-2.352,0.728l-18.224-30.4
				c-2.232-3.725-3.415-7.985-3.424-12.328V41.688z M40,56c0-8.837,7.163-16,16-16h6.056c4.248-0.01,8.323,1.678,11.32,4.688
				L80,51.312v3.824c0.002,7.25,1.97,14.364,5.696,20.584l14.976,24.952L75.72,85.704C69.503,81.972,62.388,80,55.136,80h-3.824
				l-6.624-6.624c-2.993-3.005-4.677-7.071-4.688-11.312V56z M16,121.128c-0.01-8.036,4.002-15.543,10.688-20L28.376,100
				c3.942-2.624,8.576-4.017,13.312-4h13.448c4.352-0.003,8.622,1.181,12.352,3.424l30.4,18.224c-0.264,0.8-0.52,1.552-0.728,2.352
				H80v16h17.136c0.208,0.8,0.464,1.6,0.728,2.352l-30.4,18.224c-3.722,2.239-7.984,3.422-12.328,3.424H41.688
				c-4.736,0.017-9.37-1.376-13.312-4l-1.688-1.128c-6.686-4.457-10.698-11.964-10.688-20V121.128z"/>
			<path d="M488,272H152c-4.418,0-8,3.582-8,8v32c0.105,71.568,50.053,133.397,120,148.544V488c0,4.418,3.582,8,8,8h96
				c4.418,0,8-3.582,8-8v-27.456C445.947,445.397,495.895,383.568,496,312v-32C496,275.582,492.418,272,488,272z M160,288h288v16
				H160V288z M360,480h-80v-16.856c5.315,0.564,10.655,0.85,16,0.856h48c5.345-0.006,10.685-0.292,16-0.856V480z M480,312
				c-0.084,75.076-60.924,135.916-136,136h-48c-71.926-0.119-131.333-56.2-135.592-128H446.72
				c-7.975,55.039-55.106,95.904-110.72,96h-8v16h8c70.658-0.084,127.916-57.342,128-128v-16h16V312z"/>
			<path d="M8.992,352.064c-4.384-0.546-8.382,2.565-8.928,6.949c-0.082,0.657-0.082,1.322,0,1.979C0.232,362.344,18.12,496,120,496
				c2.122,0,4.156-0.844,5.656-2.344l16-16c1.5-1.5,2.344-3.534,2.344-5.656C144,370.12,10.344,352.232,8.992,352.064z
				 M69.656,410.344l-11.312,11.312l58.28,58.28C47.416,477.448,24.2,399.2,17.928,369.928
				c29.304,6.272,107.528,29.488,110.008,98.696L69.656,410.344z"/>
			<path d="M322.344,205.656c1.5,1.5,3.534,2.344,5.656,2.344c101.88,0,119.768-133.656,119.936-135.008
				c0.546-4.384-2.565-8.382-6.949-8.928c-0.657-0.082-1.322-0.082-1.979,0C437.656,64.232,304,82.12,304,184
				c0,2.122,0.844,4.156,2.344,5.656L322.344,205.656z M430.072,81.928c-6.272,29.304-29.488,107.52-98.696,110.008l58.28-58.28
				l-11.312-11.312l-58.28,58.28C322.544,111.416,400.8,88.2,430.072,81.928z"/>
		</g>
	</g>
</g>
<g>
</g>
<g>
</g>
<g>
</g>
<g>
</g>
<g>
</g>
<g>
</g>
<g>
</g>
<g>
</g>
<g>
</g>
<g>
</g>
<g>
</g>
<g>
</g>
<g>
</g>
<g>
</g>
<g>
</g>
</svg>
