<?xml version="1.0" encoding="iso-8859-1"?>
<!-- Generator: Adobe Illustrator 19.0.0, SVG Export Plug-In . SVG Version: 6.00 Build 0)  -->
<svg version="1.1" id="Capa_1" xmlns="http://www.w3.org/2000/svg" xmlns:xlink="http://www.w3.org/1999/xlink" x="0px" y="0px"
	 viewBox="0 0 512.004 512.004" style="enable-background:new 0 0 512.004 512.004;" xml:space="preserve">
<g>
	<g>
		<path d="M90.158,436.591c-4.142,0-7.5,3.358-7.5,7.5v26.619c0,4.142,3.358,7.5,7.5,7.5c4.142,0,7.5-3.358,7.5-7.5v-26.619
			C97.658,439.948,94.3,436.591,90.158,436.591z"/>
	</g>
</g>
<g>
	<g>
		<path d="M83.833,370.062l-23.701-16.034c-3.43-2.321-8.094-1.422-10.415,2.009c-2.321,3.431-1.421,8.094,2.009,10.415
			l23.698,16.032c4.529,3.067,7.233,8.161,7.233,13.627v13.803c0,4.142,3.358,7.5,7.5,7.5c4.142,0,7.5-3.358,7.5-7.5v-13.803
			C97.658,385.661,92.49,375.924,83.833,370.062z"/>
	</g>
</g>
<g>
	<g>
		<path d="M488.52,189.018c-9.759-2.786-20.047-0.848-28.225,5.322c-8.141,6.141-13.001,15.778-13.001,25.779v18.809
			c0,1.204-0.614,1.997-0.98,2.361c-0.366,0.365-1.21,0.979-2.364,0.974c-1.834-0.005-3.326-1.501-3.326-3.335v-71.837
			c0-4.142-3.358-7.5-7.5-7.5c-4.142,0-7.5,3.358-7.5,7.5v71.837c0,1.918,0.3,3.767,0.85,5.507
			c-7.396,1.302-16.587,3.363-26.323,6.584c6.4-18.02,8.753-37.353,6.614-56.78c-0.694-6.271-4.794-11.58-10.375-14.044v-80.124
			c0-0.016,0.002-0.032,0.002-0.048c0-8.06,6.557-14.616,14.616-14.616c8.059,0,14.616,6.557,14.616,14.616v32.889
			c0,4.142,3.358,7.5,7.5,7.5c4.142,0,7.5-3.358,7.5-7.5v-32.889c0-16.331-13.286-29.616-29.616-29.616
			c-5.422,0-10.508,1.464-14.884,4.019c-1.917-14.239-13.869-25.608-28.273-26.113c-6.382-0.225-12.488,1.536-17.645,5.034
			c-4.128-11.393-15.058-19.554-27.858-19.554c-7.916,0-15.354,3.08-20.947,8.671c-5.591,5.592-8.671,13.031-8.671,20.947v14.633
			c-4.313-2.458-9.3-3.862-14.61-3.862c-7.905,0-15.342,3.078-20.952,8.677c-0.404,0.404-0.79,0.821-1.167,1.244
			c-0.38-0.426-0.769-0.846-1.176-1.254c-5.6-5.588-13.037-8.667-20.941-8.667c-5.31,0-10.297,1.404-14.61,3.862V63.411
			c0-7.916-3.08-15.354-8.672-20.947c-5.592-5.591-13.031-8.671-20.946-8.671c-12.814,0-23.754,8.18-27.872,19.544
			c-5.153-3.492-11.255-5.256-17.625-5.025c-14.411,0.506-26.363,11.875-28.28,26.114c-4.376-2.555-9.462-4.019-14.884-4.019
			c-16.33,0-29.616,13.286-29.616,29.616v138.904c0,1.834-1.492,3.33-3.327,3.335c-0.003,0-0.006,0-0.01,0
			c-1.198,0-1.989-0.609-2.354-0.974c-0.366-0.365-0.98-1.157-0.98-2.361v-18.809c0-10-4.86-19.638-13.001-25.779
			c-8.177-6.17-18.464-8.109-28.225-5.322C9.656,192.966,0,205.97,0,220.64v95.845c0,9.381,4.637,18.116,12.4,23.363l10.497,7.101
			c1.288,0.872,2.749,1.289,4.195,1.289c2.406,0,4.77-1.156,6.219-3.299c2.321-3.431,1.421-8.093-2.01-10.414l-10.499-7.103
			C17.169,324.966,15,320.877,15,316.484v-95.845c0-8.007,5.181-15.079,12.6-17.197c5.193-1.482,10.687-0.436,15.072,2.872
			c4.405,3.323,7.035,8.484,7.035,13.805v18.809c0,4.907,1.914,9.517,5.388,12.982c3.341,3.332,7.74,5.2,12.436,5.328
			c0.039,0.003,0.077,0.01,0.116,0.013c0.267,0.016,27.006,1.665,52.415,12.979c0.174,0.077,0.35,0.138,0.526,0.201
			c5.959,10.778,13.496,20.838,22.511,29.856c3.051,3.051,6.234,5.935,9.535,8.651c-6.493,9.717-10.028,21.227-10.028,32.976v34.236
			c0,4.142,3.358,7.5,7.5,7.5c4.142,0,7.5-3.358,7.5-7.5v-34.236c0-8.568,2.518-16.964,7.149-24.111
			c21.059,13.657,45.618,21.101,70.615,21.101c1.716,0,3.435-0.035,5.154-0.105c2.667-0.111,5.331-0.313,7.979-0.592V470.71
			c0,4.142,3.358,7.5,7.5,7.5s7.5-3.358,7.5-7.5V338.203c2.66,0.278,5.33,0.478,7.993,0.583c1.717,0.07,3.43,0.105,5.145,0.105
			c24.982-0.001,49.536-7.449,70.596-21.112c4.64,7.152,7.163,15.556,7.163,24.133v34.236c0,4.142,3.358,7.5,7.5,7.5
			c4.142,0,7.5-3.358,7.5-7.5v-34.236c0-11.759-3.54-23.277-10.043-33c3.298-2.715,6.48-5.598,9.53-8.647
			c9.01-9.01,16.546-19.06,22.505-29.826c0.185-0.066,0.37-0.13,0.552-0.211c25.287-11.26,51.893-12.948,52.409-12.979
			c0.042-0.002,0.082-0.01,0.123-0.013c4.695-0.129,9.094-1.996,12.434-5.328c3.474-3.465,5.388-8.076,5.388-12.982v-18.809
			c0-5.321,2.63-10.481,7.035-13.805c4.386-3.308,9.881-4.355,15.072-2.872c7.418,2.118,12.6,9.19,12.6,17.197v95.845
			c0,4.393-2.169,8.481-5.805,10.939l-63.03,42.64c-8.655,5.861-13.823,15.598-13.823,26.047v74.6c0,4.142,3.358,7.5,7.5,7.5
			c4.142,0,7.5-3.358,7.5-7.5v-74.6c0-5.466,2.704-10.56,7.23-13.625l63.024-42.636c7.766-5.25,12.403-13.984,12.403-23.365v-95.845
			C512,205.97,502.344,192.966,488.52,189.018z M115.611,180.195c-5.581,2.465-9.681,7.774-10.376,14.048
			c-2.138,19.424,0.21,38.754,6.602,56.771c-9.732-3.218-18.918-5.278-26.31-6.579c0.55-1.74,0.85-3.589,0.85-5.507V100.023
			c0-8.06,6.557-14.616,14.616-14.616c8.059,0,14.616,6.557,14.616,14.616c0,0.016,0.002,0.032,0.002,0.048V180.195z
			 M356.625,67.387c2.88-2.777,6.669-4.225,10.692-4.083c7.76,0.272,14.074,7.061,14.074,15.134l-0.002,99.695
			c-9.782-0.287-19.603,0.589-29.232,2.541V77.908c0-0.008-0.001-0.015-0.001-0.023C352.163,73.89,353.749,70.163,356.625,67.387z
			 M307.729,184.502V63.411c0-3.909,1.52-7.582,4.278-10.34c2.759-2.759,6.431-4.278,10.34-4.278
			c8.061,0,14.619,6.558,14.619,14.716l0.191,121.145c-8.646,2.854-17.023,6.599-24.932,11.234c-0.367,0.215-0.732,0.44-1.098,0.659
			c-0.97-3.891-2.115-7.72-3.427-11.479C307.714,184.88,307.729,184.693,307.729,184.502z M263.499,103.793
			c0.001-3.897,1.522-7.568,4.274-10.326c2.768-2.762,6.441-4.284,10.345-4.284c8.056,0,14.61,6.554,14.61,14.61
			c0,0.001,0,0.003,0,0.004c0,0.001,0,0.003,0,0.004v51.46c-7.089-10.458-15.742-19.903-25.821-27.982
			c-1.063-0.852-2.211-1.548-3.408-2.113V103.793z M219.272,103.802c0-0.001,0-0.003,0-0.004c0-0.001,0-0.003,0-0.004
			c-0.001-8.056,6.554-14.61,14.61-14.61c3.903,0,7.577,1.521,10.334,4.273c2.762,2.768,4.284,6.438,4.284,10.337v21.374
			c-1.196,0.565-2.343,1.26-3.404,2.111c-10.079,8.078-18.734,17.519-25.824,27.972V103.802z M175.035,63.411
			c0-8.061,6.558-14.618,14.619-14.618c3.909,0,7.582,1.52,10.34,4.278c2.759,2.759,4.278,6.431,4.278,10.34v121.09
			c0,0.178,0.014,0.353,0.027,0.528c-1.319,3.772-2.469,7.613-3.443,11.517c-0.365-0.218-0.73-0.441-1.096-0.655
			c-7.908-4.629-16.28-8.371-24.917-11.224L175.035,63.411z M144.689,63.304c4.01-0.14,7.806,1.306,10.685,4.083
			c2.877,2.775,4.462,6.503,4.469,10.498c0,0.008-0.001,0.015-0.001,0.023v102.775c-9.632-1.956-19.453-2.834-29.232-2.549
			l-0.002-99.695C130.608,70.364,136.922,63.575,144.689,63.304z M153.704,289.682c-25.123-25.131-37.354-59.319-33.56-93.792
			c0.125-1.127,1.033-2.036,2.157-2.16c23.919-2.638,48.736,2.73,69.888,15.112c1.934,1.129,3.842,2.348,5.726,3.601
			c-0.672,5.455-1.027,10.992-1.027,16.591c0,36.415,14.798,70.677,40.298,94.851C206.336,324.387,176.041,312.018,153.704,289.682z
			 M263.501,313.942v-73.966c0-4.142-3.358-7.5-7.5-7.5c-4.142,0-7.5,3.358-7.5,7.5v73.967
			c-23.15-21.409-36.613-52.166-36.613-84.91c0-35.537,15.523-68.359,42.588-90.05c0.442-0.354,0.983-0.531,1.524-0.531
			s1.083,0.177,1.525,0.531c27.051,21.685,42.565,54.506,42.565,90.05C300.091,261.784,286.638,292.539,263.501,313.942z
			 M358.277,289.661c-22.34,22.34-52.616,34.724-83.451,34.215c25.479-24.167,40.265-58.425,40.265-94.842
			c0-5.605-0.355-11.147-1.028-16.607c1.883-1.253,3.8-2.458,5.739-3.591c21.124-12.379,45.946-17.743,69.895-15.106
			c1.126,0.125,2.034,1.033,2.158,2.156C395.648,230.348,383.41,264.528,358.277,289.661z"/>
	</g>
</g>
<g>
	<g>
		<path d="M256.087,205.563h-0.093c-4.137-0.026-7.471,3.319-7.493,7.461c-0.021,4.142,3.365,7.518,7.507,7.54
			c0.014,0,0.027,0,0.041,0c4.123,0,7.477-3.332,7.499-7.46C263.569,208.96,260.229,205.585,256.087,205.563z"/>
	</g>
</g>
<g>
	<g>
		<path d="M375.04,203.002h-0.093c-4.158,0.024-7.471,3.319-7.493,7.461c-0.021,4.142,3.365,7.518,7.507,7.54
			c0.014,0,0.027,0,0.041,0c4.123,0,7.477-3.332,7.499-7.46C382.521,206.398,379.182,203.023,375.04,203.002z"/>
	</g>
</g>
<g>
	<g>
		<path d="M137.132,203.002h-0.093c-0.014,0-0.027,0-0.041,0c-4.123,0-7.431,3.333-7.453,7.461c-0.021,4.142,3.365,7.518,7.507,7.54
			c0.014,0,0.027,0,0.041,0c4.123,0,7.477-3.332,7.499-7.46C144.614,206.398,141.274,203.023,137.132,203.002z"/>
	</g>
</g>
<g>
</g>
<g>
</g>
<g>
</g>
<g>
</g>
<g>
</g>
<g>
</g>
<g>
</g>
<g>
</g>
<g>
</g>
<g>
</g>
<g>
</g>
<g>
</g>
<g>
</g>
<g>
</g>
<g>
</g>
</svg>
