<svg height="512pt" viewBox="-13 0 512 512.00031" width="512pt" xmlns="http://www.w3.org/2000/svg"><path d="m41.308594 512h358.382812l41.3125-262.71875h-441.003906zm345.558594-15h-332.734376l-36.589843-232.71875h405.914062zm0 0"/><path d="m193.917969 61.625c0 14.65625 11.925781 26.582031 26.582031 26.582031s26.582031-11.925781 26.582031-26.582031c0-14.660156-11.925781-26.582031-26.582031-26.582031s-26.582031 11.921875-26.582031 26.582031zm38.164062 0c0 6.386719-5.195312 11.582031-11.582031 11.582031s-11.582031-5.195312-11.582031-11.582031 5.195312-11.582031 11.582031-11.582031 11.582031 5.195312 11.582031 11.582031zm0 0"/><path d="m47.5625 186.605469 10.605469-10.605469-10.570313-10.574219c-5.652344-5.648437-5.652344-14.796875 0-20.449219l51.585938-51.585937c11.511718-11.511719 11.515625-30.148437 0-41.660156l-10.574219-10.574219-10.605469 10.605469 10.574219 10.574219c5.648437 5.648437 5.648437 14.796874 0 20.445312l-51.589844 51.589844c-11.511719 11.511718-11.511719 30.148437 0 41.660156zm0 0"/><path d="m129.054688 123.261719-51.585938 51.585937c-11.511719 11.511719-11.515625 30.148438 0 41.664063l10.574219 10.570312 10.605469-10.605469-10.570313-10.570312c-5.652344-5.652344-5.65625-14.796875 0-20.449219l51.585937-51.589843c11.484376-11.484376 11.484376-30.175782 0-41.660157l-10.574218-10.574219-10.609375 10.609376 10.574219 10.570312c5.636718 5.636719 5.636718 14.8125 0 20.449219zm0 0"/><path d="m140.757812 230.824219 9.121094 11.910156c26.121094-20.011719 41.101563-50.335937 41.101563-83.199219v-4.464844c0-25.316406-4.816407-51.40625-14.316407-77.542968-1.851562-5.085938-2.789062-10.4375-2.789062-15.90625 0-26.277344 21.78125-47.679688 48.550781-46.582032 23.863281.957032 43.472657 20.386719 44.640625 44.230469.316406 6.503907-.671875 12.839844-2.945312 18.839844-9.355469 24.703125-14.101563 50.59375-14.101563 76.953125v4.472656c0 32.863282 14.980469 63.1875 41.101563 83.199219l9.121094-11.910156c-22.382813-17.144531-35.222657-43.128907-35.222657-71.289063v-4.472656c0-24.539062 4.417969-48.640625 13.128907-71.640625 3.007812-7.9375 4.320312-16.3125 3.898437-24.886719-1.542969-31.53125-27.46875-57.222656-59.019531-58.4843748-35.207032-1.3867192-64.152344 26.6210938-64.152344 61.5703128 0 7.222656 1.242188 14.296875 3.691406 21.03125 8.898438 24.488281 13.414063 48.851562 13.414063 72.417968v4.464844c0 28.160156-12.839844 54.140625-35.222657 71.289063zm0 0"/><path d="m471.824219 57.789062c-13.082031-7.554687-29.789063-3.082031-37.34375 10.007813l-95.398438 165.234375 12.992188 7.5 95.398437-165.234375c3.40625-5.90625 10.945313-7.929687 16.851563-4.515625 5.90625 3.40625 7.925781 10.945312 4.515625 16.851562l-83.945313 145.398438 12.992188 7.5 83.945312-145.398438c7.554688-13.082031 3.082031-29.789062-10.007812-37.34375zm0 0"/><path d="m80.761719 277.535156 14.925781-1.488281 20.707031 207.726563-14.925781 1.488281zm0 0"/><path d="m324.609375 483.738281 20.707031-207.726562 14.925782 1.488281-20.707032 207.726562zm0 0"/><path d="m164.804688 277.042969 14.988281-.546875 7.546875 207.710937-14.992188.546875zm0 0"/><path d="m253.628906 484.222656 7.546875-207.710937 14.988281.546875-7.542968 207.710937zm0 0"/><path d="m379.3125 480.664062-14.816406-2.328124 14.03125-89.234376 14.816406 2.332032zm15.585938-99.109374-14.820313-2.332032 2.332031-14.816406 14.816406 2.328125zm3.882812-24.699219-14.820312-2.328125 2.332031-14.820313 14.816406 2.332031zm0 0"/><path d="m250.164062 236.222656c-12.050781-16.398437-20.15625-35.632812-23.433593-55.617187l14.804687-2.429688c2.894532 17.664063 10.058594 34.660157 20.714844 49.160157zm-24.71875-66.152344c-.28125-3.480468-.425781-7.023437-.425781-10.535156v-5.074218l15 .039062v5.035156c0 3.109375.128907 6.25.375 9.328125zm14.804688-25.253906-14.984375-.671875c.230469-5.140625.628906-10.332031 1.1875-15.429687l14.910156 1.628906c-.523437 4.78125-.898437 9.652344-1.113281 14.472656zm0 0"/><path d="m379.476562 232.746094-12.992187-7.5 32.425781-56.164063 12.992188 7.5zm37.425782-64.828125-12.992188-7.5 7.5-12.988281 12.992188 7.5zm12.5-21.648438-12.992188-7.5 7.5-12.988281 12.992188 7.5zm0 0"/></svg>