<svg id="Capa_1" enable-background="new 0 0 512 512" height="512" viewBox="0 0 512 512" width="512" xmlns="http://www.w3.org/2000/svg"><path d="m326.535 224.75c-32.401 0-33.69-17.031-70.538-17.031-36.826 0-38.111 17.031-70.534 17.031-32.463 0-33.224-16.566-69.084-17.022-.033 0-.065 0-.098 0-4.098 0-7.445 3.295-7.497 7.405-.053 4.142 3.262 7.542 7.403 7.595 31.138.395 32.823 17.023 69.275 17.023 36.826 0 38.111-17.031 70.534-17.031 32.401 0 33.69 17.031 70.538 17.031 4.143 0 7.5-3.358 7.5-7.5s-3.356-7.501-7.499-7.501z"/><path d="m255.997 255.219c-36.826 0-38.111 17.031-70.534 17.031-4.143 0-7.5 3.358-7.5 7.5s3.357 7.5 7.5 7.5c36.826 0 38.111-17.031 70.534-17.031 32.401 0 33.69 17.031 70.538 17.031 36.582 0 37.896-16.624 69.277-17.023 4.142-.053 7.456-3.453 7.403-7.595-.052-4.109-3.399-7.405-7.497-7.405-.032 0-.064 0-.098 0-35.663.453-36.818 17.022-69.086 17.022-32.434.001-33.689-17.03-70.537-17.03z"/><path d="m410.998 107.819c-3.815-1.613-8.216.174-9.828 3.99-1.611 3.815.175 8.215 3.991 9.827 28.362 11.981 51.74 27.434 67.605 44.687 16.081 17.487 24.234 36.176 24.234 55.547v16.313c0 33.312-24.46 64.991-68.874 89.203-45.853 24.996-106.981 38.762-172.126 38.762s-126.273-13.766-172.126-38.762c-44.414-24.211-68.874-55.89-68.874-89.202v-16.314c0-26.669 15.664-52.349 45.3-74.265 28.517-21.089 68.965-37.38 114.361-46.135 1.285 2.189 2.615 4.154 3.901 5.959-42.209 7.646-78.789 21.278-106.331 39.707-31.854 21.314-48.691 47.157-48.691 74.734 0 30.856 21.139 55.708 46.529 73.258 3.401 2.35 8.074 1.508 10.435-1.906 2.354-3.407 1.502-8.079-1.905-10.434-9.33-6.448-17.166-13.373-23.369-20.608 1.516-21.875 13.818-42.963 35.736-61.151 20.074-16.659 46.823-29.851 77.97-38.557-1.174 4.483-1.908 9.625-1.908 15.617 0 10.585 8.612 19.198 19.198 19.198 10.585 0 19.197-8.612 19.197-19.198 0-6.97 1.75-9.364 5.979-15.15 2.055-2.811 4.384-6.009 6.519-9.87 5.035-.563 10.119-1.018 15.238-1.356-3.352 6.531-6.032 14.901-6.032 26.375 0 10.585 8.612 19.198 19.198 19.198 10.585 0 19.197-8.612 19.197-19.198 0-6.972 1.75-9.366 5.979-15.151 2.291-3.134 4.919-6.754 7.241-11.234 4.66.307 9.303.71 13.914 1.206-3.066 6.352-5.432 14.397-5.432 25.18 0 10.585 8.612 19.198 19.198 19.198 10.585 0 19.197-8.612 19.197-19.198 0-6.97 1.75-9.364 5.979-15.15.676-.924 1.382-1.892 2.101-2.909 35.18 8.586 65.316 22.71 87.375 41.029 21.901 18.187 34.191 39.271 35.701 61.14-41.83 48.835-135.688 65.917-200.773 65.917-56.027 0-109.341-10.583-150.118-29.798-3.746-1.766-8.217-.159-9.981 3.587-1.766 3.747-.16 8.216 3.587 9.982 42.736 20.138 98.32 31.229 156.513 31.229 126.922 0 232.461-52.52 232.461-121.246 0-25.957-15.073-50.572-43.591-71.187-25.75-18.615-60.889-32.88-101.856-41.39-.696-2.615-1.547-4.995-2.489-7.19 10.646 2.142 21.033 4.683 31.016 7.614 3.974 1.167 8.142-1.109 9.309-5.084 1.167-3.974-1.109-8.142-5.084-9.309-14.629-4.295-30.066-7.792-45.919-10.429-2.963-4.19-4.229-6.817-4.229-12.732 0-6.973 1.75-9.368 5.98-15.155 5.645-7.724 13.375-18.302 13.375-37.812-.002-10.584-8.615-19.196-19.201-19.196-10.585 0-19.197 8.612-19.197 19.198 0 6.974-1.75 9.368-5.98 15.156-5.645 7.724-13.375 18.302-13.375 37.811 0 2.792.173 5.382.461 7.826-7.026-.479-14.114-.787-21.202-.946-.654-1.886-.961-3.987-.961-6.88 0-6.972 1.75-9.367 5.979-15.155 5.646-7.723 13.376-18.299 13.376-37.812-.001-10.586-8.613-19.198-19.199-19.198-10.585 0-19.197 8.612-19.197 19.198 0 6.973-1.75 9.367-5.979 15.155-5.646 7.723-13.376 18.299-13.376 37.811 0 2.708.162 5.228.433 7.608-6.745.413-13.459.99-20.097 1.693-1.407-2.599-2.039-5.132-2.039-9.302 0-6.973 1.75-9.368 5.98-15.155 5.645-7.724 13.375-18.302 13.375-37.812 0-10.584-8.612-19.196-19.198-19.196-10.585 0-19.197 8.612-19.197 19.198 0 6.974-1.75 9.368-5.98 15.156-5.645 7.724-13.375 18.302-13.375 37.811 0 5.795.693 10.786 1.8 15.164-101.356 20.27-168.827 73.704-168.827 134.541v147.166c0 39.056 27.237 75.413 76.694 102.373 48.018 26.175 111.697 40.591 179.306 40.591s131.288-14.416 179.306-40.591c49.457-26.961 76.694-63.318 76.694-102.373v-147.166c0-45.366-36.814-86.936-101.002-114.051zm-329.613 81.667c-19.512 16.193-32.402 34.682-38.051 54.315-3.186-7.192-4.794-14.524-4.794-21.931 0-44.981 60.375-85.86 147.608-100.538.156 1.12.235 2.357.235 3.797 0 6.97-1.75 9.364-5.979 15.15-1.043 1.427-2.157 2.953-3.281 4.613-38.375 9.053-71.437 24.428-95.738 44.594zm142.863-72.707c6.674-.485 13.423-.801 20.178-.977 1.417 2.609 2.053 5.145 2.053 9.328 0 5.091-.939 7.744-3.089 11.056-6.62.23-13.224.64-19.77 1.23 1.287-6.54 1.508-13.694.628-20.637zm60.068-.232c7.196.466 14.339 1.125 21.382 1.943.598 1.825.88 3.869.88 6.64 0 6.371-1.469 8.926-4.95 13.736-5.885-.76-11.842-1.383-17.837-1.846.674-3.562 1.083-7.488 1.083-11.89.001-3.084-.21-5.921-.558-8.583zm189.145 105.323c0 7.407-1.609 14.739-4.794 21.931-5.645-19.619-18.521-38.097-38.011-54.282-22.955-19.063-53.738-33.85-89.437-43.066 2.209-5.69 3.755-12.612 3.755-21.324 0-.024-.002-.046-.002-.07 77.267 17.203 128.489 55.471 128.489 96.811zm-160.752-178.667c4.759-6.511 8.869-12.134 8.869-24.005 0-2.314 1.883-4.198 4.197-4.198s4.198 1.883 4.198 4.198c0 14.612-5.331 21.907-10.486 28.962-4.759 6.511-8.869 12.134-8.869 24.004 0 11.871 4.11 17.494 8.869 24.006 5.155 7.054 10.486 14.348 10.486 28.96s-5.331 21.904-10.489 28.96c-4.757 6.51-8.866 12.132-8.866 23.999 0 2.314-1.883 4.198-4.197 4.198s-4.198-1.883-4.198-4.198c0-14.612 5.331-21.904 10.489-28.959 4.757-6.51 8.866-12.132 8.866-24 0-11.871-4.11-17.494-8.87-24.006-7.099-9.713-10.485-16.666-10.485-28.959 0-14.613 5.331-21.907 10.486-28.962zm-17.318 59.153c-5.084-.446-10.198-.798-15.327-1.069-1.144-2.547-2.407-4.829-3.7-6.906 5.152.232 10.279.554 15.369.96 1.121 2.591 2.372 4.904 3.658 7.015zm-42.777-59.156c4.757-6.51 8.865-12.133 8.865-24.002 0-2.314 1.883-4.198 4.197-4.198s4.198 1.883 4.198 4.198c0 14.614-5.331 21.907-10.489 28.965-4.757 6.51-8.865 12.133-8.865 24.001 0 24.615 19.354 24.879 19.354 52.966 0 12.289-3.256 19.066-10.485 28.957-4.759 6.51-8.869 12.133-8.869 24.002 0 2.314-1.883 4.198-4.197 4.198s-4.198-1.883-4.198-4.198c0-14.61 5.331-21.903 10.485-28.956 4.759-6.51 8.869-12.133 8.869-24.003 0-24.493-19.354-24.918-19.354-52.966 0-14.614 5.331-21.907 10.489-28.964zm-18.036 57.952c-4.785.225-9.546.523-14.272.897-1.012-2.351-2.128-4.487-3.284-6.439 4.749-.415 9.522-.756 14.308-1.018.994 2.397 2.097 4.572 3.248 6.56zm-42.065-57.949c4.759-6.511 8.869-12.134 8.869-24.005 0-2.314 1.883-4.198 4.197-4.198s4.198 1.883 4.198 4.198c0 14.612-5.331 21.907-10.486 28.962-4.759 6.511-8.869 12.134-8.869 24.004 0 11.871 4.11 17.494 8.869 24.006 6.985 9.557 10.486 16.611 10.486 28.96 0 12.459-3.234 19.036-10.489 28.96-4.757 6.51-8.866 12.132-8.866 23.999 0 2.314-1.883 4.198-4.197 4.198s-4.198-1.883-4.198-4.198c0-14.612 5.331-21.904 10.489-28.959 4.757-6.51 8.866-12.132 8.866-24 0-10.873-3.058-16.054-8.87-24.006-7.294-9.98-10.485-16.546-10.485-28.959-.001-14.613 5.33-21.907 10.486-28.962zm304.487 325.833c0 33.312-24.46 64.991-68.874 89.203-45.854 24.995-106.982 38.761-172.126 38.761s-126.272-13.766-172.126-38.762c-44.414-24.211-68.874-55.89-68.874-89.202v-50.097c12.847 20.058 33.711 38.323 61.694 53.577 48.018 26.176 111.696 40.591 179.306 40.591 65.865 0 128.354-13.778 175.953-38.797 3.667-1.927 5.077-6.461 3.149-10.128-1.926-3.666-6.46-5.077-10.128-3.149-45.486 23.908-105.495 37.074-168.974 37.074-65.145 0-126.273-13.766-172.126-38.762-34.39-18.747-56.804-41.973-65.176-66.965 12.999 17.937 32.547 34.303 57.996 48.176 48.018 26.176 111.696 40.591 179.306 40.591s131.288-14.416 179.306-40.591c25.44-13.868 44.983-30.227 57.981-48.156-6.075 18.055-19.531 35.272-39.797 50.666-3.299 2.505-3.941 7.21-1.437 10.509 2.514 3.309 7.222 3.934 10.509 1.436 14.683-11.153 26.212-23.294 34.438-36.121z"/></svg>